<mxfile host="Electron" agent="Mozilla/5.0 (Windows NT 10.0; Win64; x64) AppleWebKit/537.36 (KHTML, like Gecko) draw.io/26.0.9 Chrome/128.0.6613.186 Electron/32.2.5 Safari/537.36" version="26.0.9" pages="8">
  <diagram name="Sport" id="K0u8gETqEqzT05I1XVtG">
    <mxGraphModel dx="1434" dy="836" grid="1" gridSize="10" guides="1" tooltips="1" connect="1" arrows="1" fold="1" page="1" pageScale="1" pageWidth="827" pageHeight="1169" math="0" shadow="0">
      <root>
        <mxCell id="_UAuNbgfbhMRq0pLeYgJ-0" />
        <mxCell id="_UAuNbgfbhMRq0pLeYgJ-1" parent="_UAuNbgfbhMRq0pLeYgJ-0" />
        <mxCell id="_UAuNbgfbhMRq0pLeYgJ-2" value="Sport" style="swimlane;fontStyle=2;align=center;verticalAlign=top;childLayout=stackLayout;horizontal=1;startSize=26;horizontalStack=0;resizeParent=1;resizeLast=0;collapsible=1;marginBottom=0;rounded=0;shadow=0;strokeWidth=1;fillColor=#d5e8d4;strokeColor=#82b366;" parent="_UAuNbgfbhMRq0pLeYgJ-1" vertex="1">
          <mxGeometry x="170" y="120" width="210" height="104" as="geometry">
            <mxRectangle x="220" y="120" width="160" height="26" as="alternateBounds" />
          </mxGeometry>
        </mxCell>
        <mxCell id="_UAuNbgfbhMRq0pLeYgJ-3" value="key: SportKey" style="text;align=left;verticalAlign=top;spacingLeft=4;spacingRight=4;overflow=hidden;rotatable=0;points=[[0,0.5],[1,0.5]];portConstraint=eastwest;fillColor=default;" parent="_UAuNbgfbhMRq0pLeYgJ-2" vertex="1">
          <mxGeometry y="26" width="210" height="26" as="geometry" />
        </mxCell>
        <mxCell id="_UAuNbgfbhMRq0pLeYgJ-4" value="name: String" style="text;align=left;verticalAlign=top;spacingLeft=4;spacingRight=4;overflow=hidden;rotatable=0;points=[[0,0.5],[1,0.5]];portConstraint=eastwest;rounded=0;shadow=0;html=0;fillColor=default;" parent="_UAuNbgfbhMRq0pLeYgJ-2" vertex="1">
          <mxGeometry y="52" width="210" height="26" as="geometry" />
        </mxCell>
        <mxCell id="_UAuNbgfbhMRq0pLeYgJ-5" value="regionsKeys: Collection&lt;RegionKey&gt;" style="text;align=left;verticalAlign=top;spacingLeft=4;spacingRight=4;overflow=hidden;rotatable=0;points=[[0,0.5],[1,0.5]];portConstraint=eastwest;rounded=0;shadow=0;html=0;fillColor=default;" parent="_UAuNbgfbhMRq0pLeYgJ-2" vertex="1">
          <mxGeometry y="78" width="210" height="26" as="geometry" />
        </mxCell>
        <mxCell id="_UAuNbgfbhMRq0pLeYgJ-19" value="SportKey" style="swimlane;fontStyle=0;align=center;verticalAlign=top;childLayout=stackLayout;horizontal=1;startSize=26;horizontalStack=0;resizeParent=1;resizeLast=0;collapsible=1;marginBottom=0;rounded=0;shadow=0;strokeWidth=1;fillColor=#d5e8d4;strokeColor=#82b366;" parent="_UAuNbgfbhMRq0pLeYgJ-1" vertex="1">
          <mxGeometry x="620" y="232" width="160" height="52" as="geometry">
            <mxRectangle x="550" y="140" width="160" height="26" as="alternateBounds" />
          </mxGeometry>
        </mxCell>
        <mxCell id="_UAuNbgfbhMRq0pLeYgJ-20" value="sportId: String" style="text;align=left;verticalAlign=top;spacingLeft=4;spacingRight=4;overflow=hidden;rotatable=0;points=[[0,0.5],[1,0.5]];portConstraint=eastwest;fillColor=default;" parent="_UAuNbgfbhMRq0pLeYgJ-19" vertex="1">
          <mxGeometry y="26" width="160" height="26" as="geometry" />
        </mxCell>
        <mxCell id="BsHFZ9sDkkTB9becvdWf-2" style="edgeStyle=orthogonalEdgeStyle;rounded=0;orthogonalLoop=1;jettySize=auto;html=1;exitX=1;exitY=0.5;exitDx=0;exitDy=0;entryX=0.5;entryY=0;entryDx=0;entryDy=0;shadow=0;flowAnimation=0;endArrow=open;endFill=0;startArrow=diamond;startFill=0;" parent="_UAuNbgfbhMRq0pLeYgJ-1" source="_UAuNbgfbhMRq0pLeYgJ-3" target="_UAuNbgfbhMRq0pLeYgJ-19" edge="1">
          <mxGeometry relative="1" as="geometry" />
        </mxCell>
        <mxCell id="bc0oco7cGxQSYpHmJ97P-0" value="RegionKey" style="swimlane;fontStyle=0;align=center;verticalAlign=top;childLayout=stackLayout;horizontal=1;startSize=26;horizontalStack=0;resizeParent=1;resizeLast=0;collapsible=1;marginBottom=0;rounded=0;shadow=0;strokeWidth=1;fillColor=#d5e8d4;strokeColor=#82b366;" parent="_UAuNbgfbhMRq0pLeYgJ-1" vertex="1">
          <mxGeometry x="440" y="232" width="160" height="28" as="geometry">
            <mxRectangle x="550" y="140" width="160" height="26" as="alternateBounds" />
          </mxGeometry>
        </mxCell>
        <mxCell id="bc0oco7cGxQSYpHmJ97P-2" style="edgeStyle=orthogonalEdgeStyle;rounded=0;orthogonalLoop=1;jettySize=auto;html=1;exitX=1;exitY=0.5;exitDx=0;exitDy=0;entryX=0.5;entryY=0;entryDx=0;entryDy=0;startArrow=diamond;startFill=0;endArrow=open;endFill=0;" parent="_UAuNbgfbhMRq0pLeYgJ-1" source="_UAuNbgfbhMRq0pLeYgJ-5" target="bc0oco7cGxQSYpHmJ97P-0" edge="1">
          <mxGeometry relative="1" as="geometry" />
        </mxCell>
        <mxCell id="bc0oco7cGxQSYpHmJ97P-3" value="0...*" style="edgeLabel;html=1;align=center;verticalAlign=middle;resizable=0;points=[];" parent="bc0oco7cGxQSYpHmJ97P-2" vertex="1" connectable="0">
          <mxGeometry x="0.5217" y="-1" relative="1" as="geometry">
            <mxPoint x="29" y="3" as="offset" />
          </mxGeometry>
        </mxCell>
      </root>
    </mxGraphModel>
  </diagram>
  <diagram name="Region" id="EtZiHTnirMzBPRvuG5_l">
    <mxGraphModel dx="1434" dy="836" grid="1" gridSize="10" guides="1" tooltips="1" connect="1" arrows="1" fold="1" page="1" pageScale="1" pageWidth="827" pageHeight="1169" math="0" shadow="0">
      <root>
        <mxCell id="gdAcTT8jgWRYBy1URqxp-0" />
        <mxCell id="gdAcTT8jgWRYBy1URqxp-1" parent="gdAcTT8jgWRYBy1URqxp-0" />
        <mxCell id="owUOjnRkNgy_rRCOzz-K-0" value="Region" style="swimlane;fontStyle=2;align=center;verticalAlign=top;childLayout=stackLayout;horizontal=1;startSize=26;horizontalStack=0;resizeParent=1;resizeLast=0;collapsible=1;marginBottom=0;rounded=0;shadow=0;strokeWidth=1;fillColor=#d5e8d4;strokeColor=#82b366;" parent="gdAcTT8jgWRYBy1URqxp-1" vertex="1">
          <mxGeometry x="110" y="120" width="270" height="104" as="geometry">
            <mxRectangle x="220" y="120" width="160" height="26" as="alternateBounds" />
          </mxGeometry>
        </mxCell>
        <mxCell id="owUOjnRkNgy_rRCOzz-K-1" value="key: RegionKey" style="text;align=left;verticalAlign=top;spacingLeft=4;spacingRight=4;overflow=hidden;rotatable=0;points=[[0,0.5],[1,0.5]];portConstraint=eastwest;fillColor=default;" parent="owUOjnRkNgy_rRCOzz-K-0" vertex="1">
          <mxGeometry y="26" width="270" height="26" as="geometry" />
        </mxCell>
        <mxCell id="owUOjnRkNgy_rRCOzz-K-2" value="name: String" style="text;align=left;verticalAlign=top;spacingLeft=4;spacingRight=4;overflow=hidden;rotatable=0;points=[[0,0.5],[1,0.5]];portConstraint=eastwest;rounded=0;shadow=0;html=0;fillColor=default;" parent="owUOjnRkNgy_rRCOzz-K-0" vertex="1">
          <mxGeometry y="52" width="270" height="26" as="geometry" />
        </mxCell>
        <mxCell id="owUOjnRkNgy_rRCOzz-K-3" value="competitionsKeys: Collection&lt;CompetitionKey&gt;" style="text;align=left;verticalAlign=top;spacingLeft=4;spacingRight=4;overflow=hidden;rotatable=0;points=[[0,0.5],[1,0.5]];portConstraint=eastwest;rounded=0;shadow=0;html=0;fillColor=default;" parent="owUOjnRkNgy_rRCOzz-K-0" vertex="1">
          <mxGeometry y="78" width="270" height="26" as="geometry" />
        </mxCell>
        <mxCell id="owUOjnRkNgy_rRCOzz-K-4" value="RegionKey" style="swimlane;fontStyle=0;align=center;verticalAlign=top;childLayout=stackLayout;horizontal=1;startSize=26;horizontalStack=0;resizeParent=1;resizeLast=0;collapsible=1;marginBottom=0;rounded=0;shadow=0;strokeWidth=1;fillColor=#d5e8d4;strokeColor=#82b366;" parent="gdAcTT8jgWRYBy1URqxp-1" vertex="1">
          <mxGeometry x="620" y="232" width="160" height="78" as="geometry">
            <mxRectangle x="550" y="140" width="160" height="26" as="alternateBounds" />
          </mxGeometry>
        </mxCell>
        <mxCell id="owUOjnRkNgy_rRCOzz-K-5" value="sportId: String" style="text;align=left;verticalAlign=top;spacingLeft=4;spacingRight=4;overflow=hidden;rotatable=0;points=[[0,0.5],[1,0.5]];portConstraint=eastwest;fillColor=default;" parent="owUOjnRkNgy_rRCOzz-K-4" vertex="1">
          <mxGeometry y="26" width="160" height="26" as="geometry" />
        </mxCell>
        <mxCell id="owUOjnRkNgy_rRCOzz-K-10" value="regionId: String" style="text;align=left;verticalAlign=top;spacingLeft=4;spacingRight=4;overflow=hidden;rotatable=0;points=[[0,0.5],[1,0.5]];portConstraint=eastwest;fillColor=default;" parent="owUOjnRkNgy_rRCOzz-K-4" vertex="1">
          <mxGeometry y="52" width="160" height="26" as="geometry" />
        </mxCell>
        <mxCell id="owUOjnRkNgy_rRCOzz-K-6" style="edgeStyle=orthogonalEdgeStyle;rounded=0;orthogonalLoop=1;jettySize=auto;html=1;exitX=1;exitY=0.5;exitDx=0;exitDy=0;entryX=0.5;entryY=0;entryDx=0;entryDy=0;shadow=0;flowAnimation=0;endArrow=open;endFill=0;startArrow=diamond;startFill=0;" parent="gdAcTT8jgWRYBy1URqxp-1" source="owUOjnRkNgy_rRCOzz-K-1" target="owUOjnRkNgy_rRCOzz-K-4" edge="1">
          <mxGeometry relative="1" as="geometry" />
        </mxCell>
        <mxCell id="owUOjnRkNgy_rRCOzz-K-7" value="CompetitionKey" style="swimlane;fontStyle=0;align=center;verticalAlign=top;childLayout=stackLayout;horizontal=1;startSize=26;horizontalStack=0;resizeParent=1;resizeLast=0;collapsible=1;marginBottom=0;rounded=0;shadow=0;strokeWidth=1;fillColor=#d5e8d4;strokeColor=#82b366;" parent="gdAcTT8jgWRYBy1URqxp-1" vertex="1">
          <mxGeometry x="440" y="232" width="160" height="28" as="geometry">
            <mxRectangle x="550" y="140" width="160" height="26" as="alternateBounds" />
          </mxGeometry>
        </mxCell>
        <mxCell id="owUOjnRkNgy_rRCOzz-K-8" style="edgeStyle=orthogonalEdgeStyle;rounded=0;orthogonalLoop=1;jettySize=auto;html=1;exitX=1;exitY=0.5;exitDx=0;exitDy=0;entryX=0.5;entryY=0;entryDx=0;entryDy=0;startArrow=diamond;startFill=0;endArrow=open;endFill=0;" parent="gdAcTT8jgWRYBy1URqxp-1" source="owUOjnRkNgy_rRCOzz-K-3" target="owUOjnRkNgy_rRCOzz-K-7" edge="1">
          <mxGeometry relative="1" as="geometry" />
        </mxCell>
        <mxCell id="owUOjnRkNgy_rRCOzz-K-9" value="0...*" style="edgeLabel;html=1;align=center;verticalAlign=middle;resizable=0;points=[];" parent="owUOjnRkNgy_rRCOzz-K-8" vertex="1" connectable="0">
          <mxGeometry x="0.5217" y="-1" relative="1" as="geometry">
            <mxPoint x="29" y="3" as="offset" />
          </mxGeometry>
        </mxCell>
      </root>
    </mxGraphModel>
  </diagram>
  <diagram name="Competition" id="h67EIEyqY9qM_rkqNTY8">
    <mxGraphModel dx="1434" dy="836" grid="1" gridSize="10" guides="1" tooltips="1" connect="1" arrows="1" fold="1" page="1" pageScale="1" pageWidth="827" pageHeight="1169" math="0" shadow="0">
      <root>
        <mxCell id="XTZNtk3s8Enpi33apoU5-0" />
        <mxCell id="XTZNtk3s8Enpi33apoU5-1" parent="XTZNtk3s8Enpi33apoU5-0" />
        <mxCell id="TnKACXVbd0Cd37XahhlX-0" value="Competition" style="swimlane;fontStyle=2;align=center;verticalAlign=top;childLayout=stackLayout;horizontal=1;startSize=26;horizontalStack=0;resizeParent=1;resizeLast=0;collapsible=1;marginBottom=0;rounded=0;shadow=0;strokeWidth=1;fillColor=#d5e8d4;strokeColor=#82b366;" parent="XTZNtk3s8Enpi33apoU5-1" vertex="1">
          <mxGeometry x="110" y="120" width="270" height="104" as="geometry">
            <mxRectangle x="220" y="120" width="160" height="26" as="alternateBounds" />
          </mxGeometry>
        </mxCell>
        <mxCell id="TnKACXVbd0Cd37XahhlX-1" value="key: CompetitionKey" style="text;align=left;verticalAlign=top;spacingLeft=4;spacingRight=4;overflow=hidden;rotatable=0;points=[[0,0.5],[1,0.5]];portConstraint=eastwest;fillColor=default;" parent="TnKACXVbd0Cd37XahhlX-0" vertex="1">
          <mxGeometry y="26" width="270" height="26" as="geometry" />
        </mxCell>
        <mxCell id="TnKACXVbd0Cd37XahhlX-2" value="name: String" style="text;align=left;verticalAlign=top;spacingLeft=4;spacingRight=4;overflow=hidden;rotatable=0;points=[[0,0.5],[1,0.5]];portConstraint=eastwest;rounded=0;shadow=0;html=0;fillColor=default;" parent="TnKACXVbd0Cd37XahhlX-0" vertex="1">
          <mxGeometry y="52" width="270" height="26" as="geometry" />
        </mxCell>
        <mxCell id="TnKACXVbd0Cd37XahhlX-3" value="seasonsKeys: Collection&lt;SeasonKey&gt;" style="text;align=left;verticalAlign=top;spacingLeft=4;spacingRight=4;overflow=hidden;rotatable=0;points=[[0,0.5],[1,0.5]];portConstraint=eastwest;rounded=0;shadow=0;html=0;fillColor=default;" parent="TnKACXVbd0Cd37XahhlX-0" vertex="1">
          <mxGeometry y="78" width="270" height="26" as="geometry" />
        </mxCell>
        <mxCell id="TnKACXVbd0Cd37XahhlX-4" value="CompetitionKey" style="swimlane;fontStyle=0;align=center;verticalAlign=top;childLayout=stackLayout;horizontal=1;startSize=26;horizontalStack=0;resizeParent=1;resizeLast=0;collapsible=1;marginBottom=0;rounded=0;shadow=0;strokeWidth=1;fillColor=#d5e8d4;strokeColor=#82b366;" parent="XTZNtk3s8Enpi33apoU5-1" vertex="1">
          <mxGeometry x="620" y="232" width="160" height="104" as="geometry">
            <mxRectangle x="550" y="140" width="160" height="26" as="alternateBounds" />
          </mxGeometry>
        </mxCell>
        <mxCell id="TnKACXVbd0Cd37XahhlX-5" value="sportId: String" style="text;align=left;verticalAlign=top;spacingLeft=4;spacingRight=4;overflow=hidden;rotatable=0;points=[[0,0.5],[1,0.5]];portConstraint=eastwest;fillColor=default;" parent="TnKACXVbd0Cd37XahhlX-4" vertex="1">
          <mxGeometry y="26" width="160" height="26" as="geometry" />
        </mxCell>
        <mxCell id="TnKACXVbd0Cd37XahhlX-6" value="regionId: String" style="text;align=left;verticalAlign=top;spacingLeft=4;spacingRight=4;overflow=hidden;rotatable=0;points=[[0,0.5],[1,0.5]];portConstraint=eastwest;fillColor=default;" parent="TnKACXVbd0Cd37XahhlX-4" vertex="1">
          <mxGeometry y="52" width="160" height="26" as="geometry" />
        </mxCell>
        <mxCell id="TnKACXVbd0Cd37XahhlX-11" value="competitionId: String" style="text;align=left;verticalAlign=top;spacingLeft=4;spacingRight=4;overflow=hidden;rotatable=0;points=[[0,0.5],[1,0.5]];portConstraint=eastwest;fillColor=default;" parent="TnKACXVbd0Cd37XahhlX-4" vertex="1">
          <mxGeometry y="78" width="160" height="26" as="geometry" />
        </mxCell>
        <mxCell id="TnKACXVbd0Cd37XahhlX-7" style="edgeStyle=orthogonalEdgeStyle;rounded=0;orthogonalLoop=1;jettySize=auto;html=1;exitX=1;exitY=0.5;exitDx=0;exitDy=0;entryX=0.5;entryY=0;entryDx=0;entryDy=0;shadow=0;flowAnimation=0;endArrow=open;endFill=0;startArrow=diamond;startFill=0;" parent="XTZNtk3s8Enpi33apoU5-1" source="TnKACXVbd0Cd37XahhlX-1" target="TnKACXVbd0Cd37XahhlX-4" edge="1">
          <mxGeometry relative="1" as="geometry" />
        </mxCell>
        <mxCell id="TnKACXVbd0Cd37XahhlX-8" value="SeasonKey" style="swimlane;fontStyle=0;align=center;verticalAlign=top;childLayout=stackLayout;horizontal=1;startSize=26;horizontalStack=0;resizeParent=1;resizeLast=0;collapsible=1;marginBottom=0;rounded=0;shadow=0;strokeWidth=1;fillColor=#d5e8d4;strokeColor=#82b366;" parent="XTZNtk3s8Enpi33apoU5-1" vertex="1">
          <mxGeometry x="440" y="232" width="160" height="28" as="geometry">
            <mxRectangle x="550" y="140" width="160" height="26" as="alternateBounds" />
          </mxGeometry>
        </mxCell>
        <mxCell id="TnKACXVbd0Cd37XahhlX-9" style="edgeStyle=orthogonalEdgeStyle;rounded=0;orthogonalLoop=1;jettySize=auto;html=1;exitX=1;exitY=0.5;exitDx=0;exitDy=0;entryX=0.5;entryY=0;entryDx=0;entryDy=0;startArrow=diamond;startFill=0;endArrow=open;endFill=0;" parent="XTZNtk3s8Enpi33apoU5-1" source="TnKACXVbd0Cd37XahhlX-3" target="TnKACXVbd0Cd37XahhlX-8" edge="1">
          <mxGeometry relative="1" as="geometry" />
        </mxCell>
        <mxCell id="TnKACXVbd0Cd37XahhlX-10" value="0...*" style="edgeLabel;html=1;align=center;verticalAlign=middle;resizable=0;points=[];" parent="TnKACXVbd0Cd37XahhlX-9" vertex="1" connectable="0">
          <mxGeometry x="0.5217" y="-1" relative="1" as="geometry">
            <mxPoint x="29" y="3" as="offset" />
          </mxGeometry>
        </mxCell>
      </root>
    </mxGraphModel>
  </diagram>
  <diagram name="Season" id="HNo-GLTdC-ek60fQA1RD">
    <mxGraphModel dx="1434" dy="836" grid="1" gridSize="10" guides="1" tooltips="1" connect="1" arrows="1" fold="1" page="1" pageScale="1" pageWidth="827" pageHeight="1169" math="0" shadow="0">
      <root>
        <mxCell id="jDOepMvE2YRfekgljUuC-0" />
        <mxCell id="jDOepMvE2YRfekgljUuC-1" parent="jDOepMvE2YRfekgljUuC-0" />
        <mxCell id="GcBp7z5JtGSAVZSuPMZ5-0" value="Season" style="swimlane;fontStyle=2;align=center;verticalAlign=top;childLayout=stackLayout;horizontal=1;startSize=26;horizontalStack=0;resizeParent=1;resizeLast=0;collapsible=1;marginBottom=0;rounded=0;shadow=0;strokeWidth=1;fillColor=#d5e8d4;strokeColor=#82b366;" parent="jDOepMvE2YRfekgljUuC-1" vertex="1">
          <mxGeometry x="110" y="120" width="270" height="130" as="geometry">
            <mxRectangle x="220" y="120" width="160" height="26" as="alternateBounds" />
          </mxGeometry>
        </mxCell>
        <mxCell id="GcBp7z5JtGSAVZSuPMZ5-1" value="key: SeasonKey" style="text;align=left;verticalAlign=top;spacingLeft=4;spacingRight=4;overflow=hidden;rotatable=0;points=[[0,0.5],[1,0.5]];portConstraint=eastwest;fillColor=default;" parent="GcBp7z5JtGSAVZSuPMZ5-0" vertex="1">
          <mxGeometry y="26" width="270" height="26" as="geometry" />
        </mxCell>
        <mxCell id="GcBp7z5JtGSAVZSuPMZ5-2" value="initYear: int" style="text;align=left;verticalAlign=top;spacingLeft=4;spacingRight=4;overflow=hidden;rotatable=0;points=[[0,0.5],[1,0.5]];portConstraint=eastwest;rounded=0;shadow=0;html=0;fillColor=default;" parent="GcBp7z5JtGSAVZSuPMZ5-0" vertex="1">
          <mxGeometry y="52" width="270" height="26" as="geometry" />
        </mxCell>
        <mxCell id="1bbK9s_u29iCXOMx68Sb-0" value="endYear: int" style="text;align=left;verticalAlign=top;spacingLeft=4;spacingRight=4;overflow=hidden;rotatable=0;points=[[0,0.5],[1,0.5]];portConstraint=eastwest;rounded=0;shadow=0;html=0;fillColor=default;" parent="GcBp7z5JtGSAVZSuPMZ5-0" vertex="1">
          <mxGeometry y="78" width="270" height="26" as="geometry" />
        </mxCell>
        <mxCell id="GcBp7z5JtGSAVZSuPMZ5-3" value="matchesKeys: Collection&lt;MatchKey&gt;" style="text;align=left;verticalAlign=top;spacingLeft=4;spacingRight=4;overflow=hidden;rotatable=0;points=[[0,0.5],[1,0.5]];portConstraint=eastwest;rounded=0;shadow=0;html=0;fillColor=default;" parent="GcBp7z5JtGSAVZSuPMZ5-0" vertex="1">
          <mxGeometry y="104" width="270" height="26" as="geometry" />
        </mxCell>
        <mxCell id="GcBp7z5JtGSAVZSuPMZ5-4" value="SeasonKey" style="swimlane;fontStyle=0;align=center;verticalAlign=top;childLayout=stackLayout;horizontal=1;startSize=26;horizontalStack=0;resizeParent=1;resizeLast=0;collapsible=1;marginBottom=0;rounded=0;shadow=0;strokeWidth=1;fillColor=#d5e8d4;strokeColor=#82b366;" parent="jDOepMvE2YRfekgljUuC-1" vertex="1">
          <mxGeometry x="620" y="266" width="160" height="130" as="geometry">
            <mxRectangle x="550" y="140" width="160" height="26" as="alternateBounds" />
          </mxGeometry>
        </mxCell>
        <mxCell id="GcBp7z5JtGSAVZSuPMZ5-5" value="sportId: String" style="text;align=left;verticalAlign=top;spacingLeft=4;spacingRight=4;overflow=hidden;rotatable=0;points=[[0,0.5],[1,0.5]];portConstraint=eastwest;fillColor=default;" parent="GcBp7z5JtGSAVZSuPMZ5-4" vertex="1">
          <mxGeometry y="26" width="160" height="26" as="geometry" />
        </mxCell>
        <mxCell id="GcBp7z5JtGSAVZSuPMZ5-6" value="regionId: String" style="text;align=left;verticalAlign=top;spacingLeft=4;spacingRight=4;overflow=hidden;rotatable=0;points=[[0,0.5],[1,0.5]];portConstraint=eastwest;fillColor=default;" parent="GcBp7z5JtGSAVZSuPMZ5-4" vertex="1">
          <mxGeometry y="52" width="160" height="26" as="geometry" />
        </mxCell>
        <mxCell id="GcBp7z5JtGSAVZSuPMZ5-7" value="competitionId: String" style="text;align=left;verticalAlign=top;spacingLeft=4;spacingRight=4;overflow=hidden;rotatable=0;points=[[0,0.5],[1,0.5]];portConstraint=eastwest;fillColor=default;" parent="GcBp7z5JtGSAVZSuPMZ5-4" vertex="1">
          <mxGeometry y="78" width="160" height="26" as="geometry" />
        </mxCell>
        <mxCell id="GcBp7z5JtGSAVZSuPMZ5-12" value="seasonId: String" style="text;align=left;verticalAlign=top;spacingLeft=4;spacingRight=4;overflow=hidden;rotatable=0;points=[[0,0.5],[1,0.5]];portConstraint=eastwest;fillColor=default;" parent="GcBp7z5JtGSAVZSuPMZ5-4" vertex="1">
          <mxGeometry y="104" width="160" height="26" as="geometry" />
        </mxCell>
        <mxCell id="GcBp7z5JtGSAVZSuPMZ5-8" style="edgeStyle=orthogonalEdgeStyle;rounded=0;orthogonalLoop=1;jettySize=auto;html=1;exitX=1;exitY=0.5;exitDx=0;exitDy=0;entryX=0.5;entryY=0;entryDx=0;entryDy=0;shadow=0;flowAnimation=0;endArrow=open;endFill=0;startArrow=diamond;startFill=0;" parent="jDOepMvE2YRfekgljUuC-1" source="GcBp7z5JtGSAVZSuPMZ5-1" target="GcBp7z5JtGSAVZSuPMZ5-4" edge="1">
          <mxGeometry relative="1" as="geometry" />
        </mxCell>
        <mxCell id="GcBp7z5JtGSAVZSuPMZ5-9" value="MatchKey" style="swimlane;fontStyle=0;align=center;verticalAlign=top;childLayout=stackLayout;horizontal=1;startSize=26;horizontalStack=0;resizeParent=1;resizeLast=0;collapsible=1;marginBottom=0;rounded=0;shadow=0;strokeWidth=1;fillColor=#d5e8d4;strokeColor=#82b366;" parent="jDOepMvE2YRfekgljUuC-1" vertex="1">
          <mxGeometry x="440" y="266" width="160" height="28" as="geometry">
            <mxRectangle x="550" y="140" width="160" height="26" as="alternateBounds" />
          </mxGeometry>
        </mxCell>
        <mxCell id="GcBp7z5JtGSAVZSuPMZ5-10" style="edgeStyle=orthogonalEdgeStyle;rounded=0;orthogonalLoop=1;jettySize=auto;html=1;exitX=1;exitY=0.5;exitDx=0;exitDy=0;entryX=0.5;entryY=0;entryDx=0;entryDy=0;startArrow=diamond;startFill=0;endArrow=open;endFill=0;" parent="jDOepMvE2YRfekgljUuC-1" source="GcBp7z5JtGSAVZSuPMZ5-3" target="GcBp7z5JtGSAVZSuPMZ5-9" edge="1">
          <mxGeometry relative="1" as="geometry" />
        </mxCell>
        <mxCell id="GcBp7z5JtGSAVZSuPMZ5-11" value="0...*" style="edgeLabel;html=1;align=center;verticalAlign=middle;resizable=0;points=[];" parent="GcBp7z5JtGSAVZSuPMZ5-10" vertex="1" connectable="0">
          <mxGeometry x="0.5217" y="-1" relative="1" as="geometry">
            <mxPoint x="22" y="9" as="offset" />
          </mxGeometry>
        </mxCell>
      </root>
    </mxGraphModel>
  </diagram>
  <diagram name="Match" id="kGZ_6tTHIfi73KVHb9FR">
    <mxGraphModel dx="2876" dy="1194" grid="1" gridSize="10" guides="1" tooltips="1" connect="1" arrows="1" fold="1" page="1" pageScale="1" pageWidth="827" pageHeight="1169" math="0" shadow="0">
      <root>
        <mxCell id="6-enNTwALZi0Vq30tCtW-0" />
        <mxCell id="6-enNTwALZi0Vq30tCtW-1" parent="6-enNTwALZi0Vq30tCtW-0" />
        <mxCell id="oCtrtfSSTyAlaGLol4Ij-6" style="edgeStyle=orthogonalEdgeStyle;rounded=0;orthogonalLoop=1;jettySize=auto;html=1;exitX=1;exitY=0.5;exitDx=0;exitDy=0;entryX=0.5;entryY=0;entryDx=0;entryDy=0;endArrow=open;endFill=0;startArrow=diamond;startFill=0;" parent="6-enNTwALZi0Vq30tCtW-1" target="ll-C6VMd7UefL1fqzEi4-17" edge="1">
          <mxGeometry relative="1" as="geometry">
            <mxPoint x="289" y="341" as="sourcePoint" />
          </mxGeometry>
        </mxCell>
        <mxCell id="oCtrtfSSTyAlaGLol4Ij-10" value="0...*" style="edgeLabel;html=1;align=center;verticalAlign=middle;resizable=0;points=[];" parent="oCtrtfSSTyAlaGLol4Ij-6" vertex="1" connectable="0">
          <mxGeometry x="0.4696" y="-4" relative="1" as="geometry">
            <mxPoint x="19" y="135" as="offset" />
          </mxGeometry>
        </mxCell>
        <mxCell id="EFTLTyLNBo0vtJlkscVF-17" style="edgeStyle=orthogonalEdgeStyle;rounded=0;orthogonalLoop=1;jettySize=auto;html=1;exitX=0;exitY=0.75;exitDx=0;exitDy=0;entryX=0.75;entryY=0;entryDx=0;entryDy=0;startArrow=diamond;startFill=0;endArrow=open;endFill=0;" edge="1" parent="6-enNTwALZi0Vq30tCtW-1" source="ll-C6VMd7UefL1fqzEi4-0" target="EFTLTyLNBo0vtJlkscVF-7">
          <mxGeometry relative="1" as="geometry" />
        </mxCell>
        <mxCell id="ll-C6VMd7UefL1fqzEi4-0" value="Match" style="swimlane;fontStyle=2;align=center;verticalAlign=top;childLayout=stackLayout;horizontal=1;startSize=26;horizontalStack=0;resizeParent=1;resizeLast=0;collapsible=1;marginBottom=0;rounded=0;shadow=0;strokeWidth=1;fillColor=#d5e8d4;strokeColor=#82b366;" parent="6-enNTwALZi0Vq30tCtW-1" vertex="1">
          <mxGeometry x="18" y="120" width="270" height="442" as="geometry">
            <mxRectangle x="220" y="120" width="160" height="26" as="alternateBounds" />
          </mxGeometry>
        </mxCell>
        <mxCell id="ll-C6VMd7UefL1fqzEi4-1" value="key: MatchKey" style="text;align=left;verticalAlign=top;spacingLeft=4;spacingRight=4;overflow=hidden;rotatable=0;points=[[0,0.5],[1,0.5]];portConstraint=eastwest;fillColor=default;" parent="ll-C6VMd7UefL1fqzEi4-0" vertex="1">
          <mxGeometry y="26" width="270" height="26" as="geometry" />
        </mxCell>
        <mxCell id="ll-C6VMd7UefL1fqzEi4-2" value="homeTeamKey: TeamKey" style="text;align=left;verticalAlign=top;spacingLeft=4;spacingRight=4;overflow=hidden;rotatable=0;points=[[0,0.5],[1,0.5]];portConstraint=eastwest;rounded=0;shadow=0;html=0;fillColor=default;" parent="ll-C6VMd7UefL1fqzEi4-0" vertex="1">
          <mxGeometry y="52" width="270" height="26" as="geometry" />
        </mxCell>
        <mxCell id="ll-C6VMd7UefL1fqzEi4-3" value="awayTeamKey: TeamKey" style="text;align=left;verticalAlign=top;spacingLeft=4;spacingRight=4;overflow=hidden;rotatable=0;points=[[0,0.5],[1,0.5]];portConstraint=eastwest;rounded=0;shadow=0;html=0;fillColor=default;" parent="ll-C6VMd7UefL1fqzEi4-0" vertex="1">
          <mxGeometry y="78" width="270" height="26" as="geometry" />
        </mxCell>
        <mxCell id="ll-C6VMd7UefL1fqzEi4-4" value="homeTeamGoals: int" style="text;align=left;verticalAlign=top;spacingLeft=4;spacingRight=4;overflow=hidden;rotatable=0;points=[[0,0.5],[1,0.5]];portConstraint=eastwest;rounded=0;shadow=0;html=0;fillColor=default;" parent="ll-C6VMd7UefL1fqzEi4-0" vertex="1">
          <mxGeometry y="104" width="270" height="26" as="geometry" />
        </mxCell>
        <mxCell id="ll-C6VMd7UefL1fqzEi4-5" value="awayTeamGoals: int" style="text;align=left;verticalAlign=top;spacingLeft=4;spacingRight=4;overflow=hidden;rotatable=0;points=[[0,0.5],[1,0.5]];portConstraint=eastwest;rounded=0;shadow=0;html=0;fillColor=default;" parent="ll-C6VMd7UefL1fqzEi4-0" vertex="1">
          <mxGeometry y="130" width="270" height="26" as="geometry" />
        </mxCell>
        <mxCell id="ll-C6VMd7UefL1fqzEi4-6" value="date: Date" style="text;align=left;verticalAlign=top;spacingLeft=4;spacingRight=4;overflow=hidden;rotatable=0;points=[[0,0.5],[1,0.5]];portConstraint=eastwest;rounded=0;shadow=0;html=0;fillColor=default;" parent="ll-C6VMd7UefL1fqzEi4-0" vertex="1">
          <mxGeometry y="156" width="270" height="26" as="geometry" />
        </mxCell>
        <mxCell id="oCtrtfSSTyAlaGLol4Ij-0" value="firstHalfEvents: Collection&lt;Event&gt;" style="text;align=left;verticalAlign=top;spacingLeft=4;spacingRight=4;overflow=hidden;rotatable=0;points=[[0,0.5],[1,0.5]];portConstraint=eastwest;rounded=0;shadow=0;html=0;fillColor=default;" parent="ll-C6VMd7UefL1fqzEi4-0" vertex="1">
          <mxGeometry y="182" width="270" height="26" as="geometry" />
        </mxCell>
        <mxCell id="oCtrtfSSTyAlaGLol4Ij-1" value="secondHalfEvents: Collection&lt;Event&gt;" style="text;align=left;verticalAlign=top;spacingLeft=4;spacingRight=4;overflow=hidden;rotatable=0;points=[[0,0.5],[1,0.5]];portConstraint=eastwest;rounded=0;shadow=0;html=0;fillColor=default;" parent="ll-C6VMd7UefL1fqzEi4-0" vertex="1">
          <mxGeometry y="208" width="270" height="26" as="geometry" />
        </mxCell>
        <mxCell id="oCtrtfSSTyAlaGLol4Ij-2" value="extraTimeEvents: Collection&lt;Event&gt;" style="text;align=left;verticalAlign=top;spacingLeft=4;spacingRight=4;overflow=hidden;rotatable=0;points=[[0,0.5],[1,0.5]];portConstraint=eastwest;rounded=0;shadow=0;html=0;fillColor=default;" parent="ll-C6VMd7UefL1fqzEi4-0" vertex="1">
          <mxGeometry y="234" width="270" height="26" as="geometry" />
        </mxCell>
        <mxCell id="oCtrtfSSTyAlaGLol4Ij-3" value="penalties: Collection&lt;Penalty&gt;" style="text;align=left;verticalAlign=top;spacingLeft=4;spacingRight=4;overflow=hidden;rotatable=0;points=[[0,0.5],[1,0.5]];portConstraint=eastwest;rounded=0;shadow=0;html=0;fillColor=default;" parent="ll-C6VMd7UefL1fqzEi4-0" vertex="1">
          <mxGeometry y="260" width="270" height="26" as="geometry" />
        </mxCell>
        <mxCell id="EFTLTyLNBo0vtJlkscVF-1" value="homeCoachPlayerKey: PlayerKey" style="text;align=left;verticalAlign=top;spacingLeft=4;spacingRight=4;overflow=hidden;rotatable=0;points=[[0,0.5],[1,0.5]];portConstraint=eastwest;rounded=0;shadow=0;html=0;fillColor=default;" vertex="1" parent="ll-C6VMd7UefL1fqzEi4-0">
          <mxGeometry y="286" width="270" height="26" as="geometry" />
        </mxCell>
        <mxCell id="EFTLTyLNBo0vtJlkscVF-2" value="awayCoachPlayerKey: PlayerKey" style="text;align=left;verticalAlign=top;spacingLeft=4;spacingRight=4;overflow=hidden;rotatable=0;points=[[0,0.5],[1,0.5]];portConstraint=eastwest;rounded=0;shadow=0;html=0;fillColor=default;" vertex="1" parent="ll-C6VMd7UefL1fqzEi4-0">
          <mxGeometry y="312" width="270" height="26" as="geometry" />
        </mxCell>
        <mxCell id="EFTLTyLNBo0vtJlkscVF-3" value="homeLineupPlayersKeys: Collection&lt;PlayerKey&gt;" style="text;align=left;verticalAlign=top;spacingLeft=4;spacingRight=4;overflow=hidden;rotatable=0;points=[[0,0.5],[1,0.5]];portConstraint=eastwest;rounded=0;shadow=0;html=0;fillColor=default;" vertex="1" parent="ll-C6VMd7UefL1fqzEi4-0">
          <mxGeometry y="338" width="270" height="26" as="geometry" />
        </mxCell>
        <mxCell id="EFTLTyLNBo0vtJlkscVF-4" value="awayLineupPlayersKeys: Collection&lt;PlayerKey&gt;" style="text;align=left;verticalAlign=top;spacingLeft=4;spacingRight=4;overflow=hidden;rotatable=0;points=[[0,0.5],[1,0.5]];portConstraint=eastwest;rounded=0;shadow=0;html=0;fillColor=default;" vertex="1" parent="ll-C6VMd7UefL1fqzEi4-0">
          <mxGeometry y="364" width="270" height="26" as="geometry" />
        </mxCell>
        <mxCell id="EFTLTyLNBo0vtJlkscVF-5" value="homeBenchPlayersKeys: Collection&lt;PlayerKey&gt;" style="text;align=left;verticalAlign=top;spacingLeft=4;spacingRight=4;overflow=hidden;rotatable=0;points=[[0,0.5],[1,0.5]];portConstraint=eastwest;rounded=0;shadow=0;html=0;fillColor=default;" vertex="1" parent="ll-C6VMd7UefL1fqzEi4-0">
          <mxGeometry y="390" width="270" height="26" as="geometry" />
        </mxCell>
        <mxCell id="EFTLTyLNBo0vtJlkscVF-6" value="awayBenchPlayersKeys: Collection&lt;PlayerKey&gt;" style="text;align=left;verticalAlign=top;spacingLeft=4;spacingRight=4;overflow=hidden;rotatable=0;points=[[0,0.5],[1,0.5]];portConstraint=eastwest;rounded=0;shadow=0;html=0;fillColor=default;" vertex="1" parent="ll-C6VMd7UefL1fqzEi4-0">
          <mxGeometry y="416" width="270" height="26" as="geometry" />
        </mxCell>
        <mxCell id="ll-C6VMd7UefL1fqzEi4-7" value="MatchKey" style="swimlane;fontStyle=0;align=center;verticalAlign=top;childLayout=stackLayout;horizontal=1;startSize=26;horizontalStack=0;resizeParent=1;resizeLast=0;collapsible=1;marginBottom=0;rounded=0;shadow=0;strokeWidth=1;fillColor=#d5e8d4;strokeColor=#82b366;" parent="6-enNTwALZi0Vq30tCtW-1" vertex="1">
          <mxGeometry x="780" y="599" width="160" height="52" as="geometry">
            <mxRectangle x="550" y="140" width="160" height="26" as="alternateBounds" />
          </mxGeometry>
        </mxCell>
        <mxCell id="ll-C6VMd7UefL1fqzEi4-8" value="matchId: String" style="text;align=left;verticalAlign=top;spacingLeft=4;spacingRight=4;overflow=hidden;rotatable=0;points=[[0,0.5],[1,0.5]];portConstraint=eastwest;fillColor=default;" parent="ll-C6VMd7UefL1fqzEi4-7" vertex="1">
          <mxGeometry y="26" width="160" height="26" as="geometry" />
        </mxCell>
        <mxCell id="ll-C6VMd7UefL1fqzEi4-10" style="edgeStyle=orthogonalEdgeStyle;rounded=0;orthogonalLoop=1;jettySize=auto;html=1;exitX=1;exitY=0.5;exitDx=0;exitDy=0;entryX=0.5;entryY=0;entryDx=0;entryDy=0;shadow=0;flowAnimation=0;endArrow=open;endFill=0;startArrow=diamond;startFill=0;" parent="6-enNTwALZi0Vq30tCtW-1" target="ll-C6VMd7UefL1fqzEi4-7" edge="1">
          <mxGeometry relative="1" as="geometry">
            <mxPoint x="289" y="159" as="sourcePoint" />
          </mxGeometry>
        </mxCell>
        <mxCell id="ll-C6VMd7UefL1fqzEi4-15" value="TeamKey" style="swimlane;fontStyle=0;align=center;verticalAlign=top;childLayout=stackLayout;horizontal=1;startSize=26;horizontalStack=0;resizeParent=1;resizeLast=0;collapsible=1;marginBottom=0;rounded=0;shadow=0;strokeWidth=1;fillColor=#d5e8d4;strokeColor=#82b366;" parent="6-enNTwALZi0Vq30tCtW-1" vertex="1">
          <mxGeometry x="600" y="599" width="160" height="27" as="geometry">
            <mxRectangle x="550" y="140" width="160" height="26" as="alternateBounds" />
          </mxGeometry>
        </mxCell>
        <mxCell id="ll-C6VMd7UefL1fqzEi4-17" value="Event" style="swimlane;fontStyle=0;align=center;verticalAlign=top;childLayout=stackLayout;horizontal=1;startSize=26;horizontalStack=0;resizeParent=1;resizeLast=0;collapsible=1;marginBottom=0;rounded=0;shadow=0;strokeWidth=1;fillColor=#d5e8d4;strokeColor=#82b366;" parent="6-enNTwALZi0Vq30tCtW-1" vertex="1">
          <mxGeometry x="448" y="655.67" width="160" height="27" as="geometry">
            <mxRectangle x="550" y="140" width="160" height="26" as="alternateBounds" />
          </mxGeometry>
        </mxCell>
        <mxCell id="ll-C6VMd7UefL1fqzEi4-19" style="edgeStyle=orthogonalEdgeStyle;rounded=0;orthogonalLoop=1;jettySize=auto;html=1;exitX=1;exitY=0.5;exitDx=0;exitDy=0;entryX=0.75;entryY=0;entryDx=0;entryDy=0;endArrow=open;endFill=0;startArrow=diamond;startFill=0;" parent="6-enNTwALZi0Vq30tCtW-1" target="ll-C6VMd7UefL1fqzEi4-15" edge="1">
          <mxGeometry relative="1" as="geometry">
            <mxPoint x="289" y="185" as="sourcePoint" />
          </mxGeometry>
        </mxCell>
        <mxCell id="ll-C6VMd7UefL1fqzEi4-20" style="edgeStyle=orthogonalEdgeStyle;rounded=0;orthogonalLoop=1;jettySize=auto;html=1;exitX=1;exitY=0.5;exitDx=0;exitDy=0;entryX=0.25;entryY=0;entryDx=0;entryDy=0;endArrow=open;endFill=0;startArrow=diamond;startFill=0;" parent="6-enNTwALZi0Vq30tCtW-1" target="ll-C6VMd7UefL1fqzEi4-15" edge="1">
          <mxGeometry relative="1" as="geometry">
            <mxPoint x="289" y="211" as="sourcePoint" />
          </mxGeometry>
        </mxCell>
        <mxCell id="oCtrtfSSTyAlaGLol4Ij-4" value="Penalty" style="swimlane;fontStyle=0;align=center;verticalAlign=top;childLayout=stackLayout;horizontal=1;startSize=26;horizontalStack=0;resizeParent=1;resizeLast=0;collapsible=1;marginBottom=0;rounded=0;shadow=0;strokeWidth=1;fillColor=#d5e8d4;strokeColor=#82b366;" parent="6-enNTwALZi0Vq30tCtW-1" vertex="1">
          <mxGeometry x="300" y="611.5" width="160" height="27" as="geometry">
            <mxRectangle x="550" y="140" width="160" height="26" as="alternateBounds" />
          </mxGeometry>
        </mxCell>
        <mxCell id="oCtrtfSSTyAlaGLol4Ij-5" style="edgeStyle=orthogonalEdgeStyle;rounded=0;orthogonalLoop=1;jettySize=auto;html=1;exitX=1;exitY=0.5;exitDx=0;exitDy=0;entryX=0.75;entryY=0;entryDx=0;entryDy=0;endArrow=open;endFill=0;startArrow=diamond;startFill=0;" parent="6-enNTwALZi0Vq30tCtW-1" target="ll-C6VMd7UefL1fqzEi4-17" edge="1">
          <mxGeometry relative="1" as="geometry">
            <mxPoint x="481" y="370" as="targetPoint" />
            <mxPoint x="289" y="315" as="sourcePoint" />
          </mxGeometry>
        </mxCell>
        <mxCell id="oCtrtfSSTyAlaGLol4Ij-9" value="0...*" style="edgeLabel;html=1;align=center;verticalAlign=middle;resizable=0;points=[];" parent="oCtrtfSSTyAlaGLol4Ij-5" vertex="1" connectable="0">
          <mxGeometry x="0.3578" y="2" relative="1" as="geometry">
            <mxPoint x="10" y="191" as="offset" />
          </mxGeometry>
        </mxCell>
        <mxCell id="oCtrtfSSTyAlaGLol4Ij-7" style="edgeStyle=orthogonalEdgeStyle;rounded=0;orthogonalLoop=1;jettySize=auto;html=1;exitX=1;exitY=0.5;exitDx=0;exitDy=0;entryX=0.25;entryY=0;entryDx=0;entryDy=0;endArrow=open;endFill=0;startArrow=diamond;startFill=0;" parent="6-enNTwALZi0Vq30tCtW-1" target="ll-C6VMd7UefL1fqzEi4-17" edge="1">
          <mxGeometry relative="1" as="geometry">
            <mxPoint x="289" y="367" as="sourcePoint" />
          </mxGeometry>
        </mxCell>
        <mxCell id="oCtrtfSSTyAlaGLol4Ij-11" value="0...*" style="edgeLabel;html=1;align=center;verticalAlign=middle;resizable=0;points=[];" parent="oCtrtfSSTyAlaGLol4Ij-7" vertex="1" connectable="0">
          <mxGeometry x="0.407" y="-2" relative="1" as="geometry">
            <mxPoint x="14" y="133" as="offset" />
          </mxGeometry>
        </mxCell>
        <mxCell id="oCtrtfSSTyAlaGLol4Ij-8" style="edgeStyle=orthogonalEdgeStyle;rounded=0;orthogonalLoop=1;jettySize=auto;html=1;exitX=1;exitY=0.5;exitDx=0;exitDy=0;entryX=0.75;entryY=0;entryDx=0;entryDy=0;endArrow=open;endFill=0;startArrow=diamond;startFill=0;" parent="6-enNTwALZi0Vq30tCtW-1" target="oCtrtfSSTyAlaGLol4Ij-4" edge="1">
          <mxGeometry relative="1" as="geometry">
            <mxPoint x="289" y="393" as="sourcePoint" />
          </mxGeometry>
        </mxCell>
        <mxCell id="EFTLTyLNBo0vtJlkscVF-7" value="PlayerKey" style="swimlane;fontStyle=0;align=center;verticalAlign=top;childLayout=stackLayout;horizontal=1;startSize=26;horizontalStack=0;resizeParent=1;resizeLast=0;collapsible=1;marginBottom=0;rounded=0;shadow=0;strokeWidth=1;fillColor=#d5e8d4;strokeColor=#82b366;" vertex="1" parent="6-enNTwALZi0Vq30tCtW-1">
          <mxGeometry x="-230" y="471" width="160" height="27" as="geometry">
            <mxRectangle x="550" y="140" width="160" height="26" as="alternateBounds" />
          </mxGeometry>
        </mxCell>
        <mxCell id="EFTLTyLNBo0vtJlkscVF-16" style="edgeStyle=orthogonalEdgeStyle;rounded=0;orthogonalLoop=1;jettySize=auto;html=1;exitX=0;exitY=0.5;exitDx=0;exitDy=0;entryX=0.25;entryY=0;entryDx=0;entryDy=0;endArrow=open;endFill=0;startArrow=diamond;startFill=0;" edge="1" parent="6-enNTwALZi0Vq30tCtW-1" source="EFTLTyLNBo0vtJlkscVF-1" target="EFTLTyLNBo0vtJlkscVF-7">
          <mxGeometry relative="1" as="geometry" />
        </mxCell>
        <mxCell id="EFTLTyLNBo0vtJlkscVF-18" style="edgeStyle=orthogonalEdgeStyle;rounded=0;orthogonalLoop=1;jettySize=auto;html=1;exitX=0;exitY=0.5;exitDx=0;exitDy=0;entryX=0.25;entryY=1;entryDx=0;entryDy=0;endArrow=open;endFill=0;startArrow=diamond;startFill=0;" edge="1" parent="6-enNTwALZi0Vq30tCtW-1" source="EFTLTyLNBo0vtJlkscVF-6" target="EFTLTyLNBo0vtJlkscVF-7">
          <mxGeometry relative="1" as="geometry" />
        </mxCell>
        <mxCell id="EFTLTyLNBo0vtJlkscVF-19" style="edgeStyle=orthogonalEdgeStyle;rounded=0;orthogonalLoop=1;jettySize=auto;html=1;exitX=0;exitY=0.5;exitDx=0;exitDy=0;entryX=0.75;entryY=1;entryDx=0;entryDy=0;endArrow=open;endFill=0;startArrow=diamond;startFill=0;" edge="1" parent="6-enNTwALZi0Vq30tCtW-1" source="EFTLTyLNBo0vtJlkscVF-5" target="EFTLTyLNBo0vtJlkscVF-7">
          <mxGeometry relative="1" as="geometry" />
        </mxCell>
        <mxCell id="EFTLTyLNBo0vtJlkscVF-20" style="edgeStyle=orthogonalEdgeStyle;rounded=0;orthogonalLoop=1;jettySize=auto;html=1;exitX=0;exitY=0.5;exitDx=0;exitDy=0;entryX=1;entryY=0.25;entryDx=0;entryDy=0;endArrow=open;endFill=0;startArrow=diamond;startFill=0;" edge="1" parent="6-enNTwALZi0Vq30tCtW-1" source="EFTLTyLNBo0vtJlkscVF-3" target="EFTLTyLNBo0vtJlkscVF-7">
          <mxGeometry relative="1" as="geometry">
            <mxPoint x="-40" y="500" as="targetPoint" />
          </mxGeometry>
        </mxCell>
        <mxCell id="EFTLTyLNBo0vtJlkscVF-22" value="0...*" style="edgeLabel;html=1;align=center;verticalAlign=middle;resizable=0;points=[];" vertex="1" connectable="0" parent="EFTLTyLNBo0vtJlkscVF-20">
          <mxGeometry x="-0.5316" y="2" relative="1" as="geometry">
            <mxPoint x="-46" y="-4" as="offset" />
          </mxGeometry>
        </mxCell>
        <mxCell id="EFTLTyLNBo0vtJlkscVF-21" style="edgeStyle=orthogonalEdgeStyle;rounded=0;orthogonalLoop=1;jettySize=auto;html=1;exitX=0;exitY=0.5;exitDx=0;exitDy=0;entryX=1;entryY=0.75;entryDx=0;entryDy=0;endArrow=open;endFill=0;startArrow=diamond;startFill=0;" edge="1" parent="6-enNTwALZi0Vq30tCtW-1" source="EFTLTyLNBo0vtJlkscVF-4" target="EFTLTyLNBo0vtJlkscVF-7">
          <mxGeometry relative="1" as="geometry" />
        </mxCell>
        <mxCell id="EFTLTyLNBo0vtJlkscVF-23" value="0...*" style="edgeLabel;html=1;align=center;verticalAlign=middle;resizable=0;points=[];" vertex="1" connectable="0" parent="6-enNTwALZi0Vq30tCtW-1">
          <mxGeometry x="-50.00000000000009" y="498" as="geometry" />
        </mxCell>
        <mxCell id="EFTLTyLNBo0vtJlkscVF-24" value="0...*" style="edgeLabel;html=1;align=center;verticalAlign=middle;resizable=0;points=[];" vertex="1" connectable="0" parent="6-enNTwALZi0Vq30tCtW-1">
          <mxGeometry x="-90.00000000000009" y="510" as="geometry" />
        </mxCell>
        <mxCell id="EFTLTyLNBo0vtJlkscVF-25" value="0...*" style="edgeLabel;html=1;align=center;verticalAlign=middle;resizable=0;points=[];" vertex="1" connectable="0" parent="6-enNTwALZi0Vq30tCtW-1">
          <mxGeometry x="-170.00000000000009" y="510" as="geometry" />
        </mxCell>
      </root>
    </mxGraphModel>
  </diagram>
  <diagram name="Event" id="7A3LpWlYxA9aVYxRoMb2">
    <mxGraphModel dx="2261" dy="836" grid="1" gridSize="10" guides="1" tooltips="1" connect="1" arrows="1" fold="1" page="1" pageScale="1" pageWidth="827" pageHeight="1169" math="0" shadow="0">
      <root>
        <mxCell id="mO-IK6Tji97R9yf996be-0" />
        <mxCell id="mO-IK6Tji97R9yf996be-1" parent="mO-IK6Tji97R9yf996be-0" />
        <mxCell id="k1K5q3cSBx2pi7pBm-CR-0" value="Event" style="swimlane;fontStyle=2;align=center;verticalAlign=top;childLayout=stackLayout;horizontal=1;startSize=26;horizontalStack=0;resizeParent=1;resizeLast=0;collapsible=1;marginBottom=0;rounded=0;shadow=0;strokeWidth=1;fillColor=#d5e8d4;strokeColor=#82b366;" parent="mO-IK6Tji97R9yf996be-1" vertex="1">
          <mxGeometry x="370" y="110" width="130" height="130" as="geometry">
            <mxRectangle x="220" y="120" width="160" height="26" as="alternateBounds" />
          </mxGeometry>
        </mxCell>
        <mxCell id="k1K5q3cSBx2pi7pBm-CR-1" value="type: EventType" style="text;align=left;verticalAlign=top;spacingLeft=4;spacingRight=4;overflow=hidden;rotatable=0;points=[[0,0.5],[1,0.5]];portConstraint=eastwest;fillColor=default;" parent="k1K5q3cSBx2pi7pBm-CR-0" vertex="1">
          <mxGeometry y="26" width="130" height="26" as="geometry" />
        </mxCell>
        <mxCell id="k1K5q3cSBx2pi7pBm-CR-2" value="minute: int" style="text;align=left;verticalAlign=top;spacingLeft=4;spacingRight=4;overflow=hidden;rotatable=0;points=[[0,0.5],[1,0.5]];portConstraint=eastwest;rounded=0;shadow=0;html=0;fillColor=default;" parent="k1K5q3cSBx2pi7pBm-CR-0" vertex="1">
          <mxGeometry y="52" width="130" height="26" as="geometry" />
        </mxCell>
        <mxCell id="k1K5q3cSBx2pi7pBm-CR-3" value="extraMinute: int" style="text;align=left;verticalAlign=top;spacingLeft=4;spacingRight=4;overflow=hidden;rotatable=0;points=[[0,0.5],[1,0.5]];portConstraint=eastwest;rounded=0;shadow=0;html=0;fillColor=default;" parent="k1K5q3cSBx2pi7pBm-CR-0" vertex="1">
          <mxGeometry y="78" width="130" height="26" as="geometry" />
        </mxCell>
        <mxCell id="k1K5q3cSBx2pi7pBm-CR-4" value="teamKey: TeamKey" style="text;align=left;verticalAlign=top;spacingLeft=4;spacingRight=4;overflow=hidden;rotatable=0;points=[[0,0.5],[1,0.5]];portConstraint=eastwest;rounded=0;shadow=0;html=0;fillColor=default;" parent="k1K5q3cSBx2pi7pBm-CR-0" vertex="1">
          <mxGeometry y="104" width="130" height="26" as="geometry" />
        </mxCell>
        <mxCell id="k1K5q3cSBx2pi7pBm-CR-60" style="edgeStyle=orthogonalEdgeStyle;rounded=0;orthogonalLoop=1;jettySize=auto;html=1;exitX=0.5;exitY=0;exitDx=0;exitDy=0;entryX=0.5;entryY=1;entryDx=0;entryDy=0;endArrow=block;endFill=0;" parent="mO-IK6Tji97R9yf996be-1" source="k1K5q3cSBx2pi7pBm-CR-7" target="k1K5q3cSBx2pi7pBm-CR-0" edge="1">
          <mxGeometry relative="1" as="geometry">
            <Array as="points">
              <mxPoint x="822" y="350" />
              <mxPoint x="435" y="350" />
            </Array>
          </mxGeometry>
        </mxCell>
        <mxCell id="k1K5q3cSBx2pi7pBm-CR-7" value="Penalty" style="swimlane;fontStyle=0;align=center;verticalAlign=top;childLayout=stackLayout;horizontal=1;startSize=26;horizontalStack=0;resizeParent=1;resizeLast=0;collapsible=1;marginBottom=0;rounded=0;shadow=0;strokeWidth=1;fillColor=#d5e8d4;strokeColor=#82b366;" parent="mO-IK6Tji97R9yf996be-1" vertex="1">
          <mxGeometry x="742" y="389" width="160" height="78" as="geometry">
            <mxRectangle x="550" y="140" width="160" height="26" as="alternateBounds" />
          </mxGeometry>
        </mxCell>
        <mxCell id="k1K5q3cSBx2pi7pBm-CR-8" value="missed: boolean" style="text;align=left;verticalAlign=top;spacingLeft=4;spacingRight=4;overflow=hidden;rotatable=0;points=[[0,0.5],[1,0.5]];portConstraint=eastwest;fillColor=default;" parent="k1K5q3cSBx2pi7pBm-CR-7" vertex="1">
          <mxGeometry y="26" width="160" height="26" as="geometry" />
        </mxCell>
        <mxCell id="k1K5q3cSBx2pi7pBm-CR-9" value="playerKey: PlayerKey" style="text;align=left;verticalAlign=top;spacingLeft=4;spacingRight=4;overflow=hidden;rotatable=0;points=[[0,0.5],[1,0.5]];portConstraint=eastwest;fillColor=default;" parent="k1K5q3cSBx2pi7pBm-CR-7" vertex="1">
          <mxGeometry y="52" width="160" height="26" as="geometry" />
        </mxCell>
        <mxCell id="k1K5q3cSBx2pi7pBm-CR-61" style="edgeStyle=orthogonalEdgeStyle;rounded=0;orthogonalLoop=1;jettySize=auto;html=1;exitX=0.5;exitY=0;exitDx=0;exitDy=0;entryX=0.5;entryY=1;entryDx=0;entryDy=0;endArrow=block;endFill=0;" parent="mO-IK6Tji97R9yf996be-1" source="k1K5q3cSBx2pi7pBm-CR-15" target="k1K5q3cSBx2pi7pBm-CR-0" edge="1">
          <mxGeometry relative="1" as="geometry">
            <Array as="points">
              <mxPoint x="602" y="350" />
              <mxPoint x="435" y="350" />
            </Array>
          </mxGeometry>
        </mxCell>
        <mxCell id="k1K5q3cSBx2pi7pBm-CR-67" style="edgeStyle=orthogonalEdgeStyle;rounded=0;orthogonalLoop=1;jettySize=auto;html=1;exitX=0;exitY=0.5;exitDx=0;exitDy=0;entryX=0.5;entryY=0;entryDx=0;entryDy=0;endArrow=open;endFill=0;startArrow=diamond;startFill=0;" parent="mO-IK6Tji97R9yf996be-1" source="k1K5q3cSBx2pi7pBm-CR-15" target="k1K5q3cSBx2pi7pBm-CR-38" edge="1">
          <mxGeometry relative="1" as="geometry">
            <mxPoint x="470" y="590" as="targetPoint" />
            <Array as="points">
              <mxPoint x="500" y="428" />
              <mxPoint x="500" y="520" />
              <mxPoint x="430" y="520" />
            </Array>
          </mxGeometry>
        </mxCell>
        <mxCell id="k1K5q3cSBx2pi7pBm-CR-15" value="Substitution" style="swimlane;fontStyle=0;align=center;verticalAlign=top;childLayout=stackLayout;horizontal=1;startSize=26;horizontalStack=0;resizeParent=1;resizeLast=0;collapsible=1;marginBottom=0;rounded=0;shadow=0;strokeWidth=1;fillColor=#d5e8d4;strokeColor=#82b366;" parent="mO-IK6Tji97R9yf996be-1" vertex="1">
          <mxGeometry x="522" y="389" width="160" height="78" as="geometry">
            <mxRectangle x="550" y="140" width="160" height="26" as="alternateBounds" />
          </mxGeometry>
        </mxCell>
        <mxCell id="k1K5q3cSBx2pi7pBm-CR-16" value="inPlayerKey: PlayerKey" style="text;align=left;verticalAlign=top;spacingLeft=4;spacingRight=4;overflow=hidden;rotatable=0;points=[[0,0.5],[1,0.5]];portConstraint=eastwest;fillColor=default;" parent="k1K5q3cSBx2pi7pBm-CR-15" vertex="1">
          <mxGeometry y="26" width="160" height="26" as="geometry" />
        </mxCell>
        <mxCell id="k1K5q3cSBx2pi7pBm-CR-17" value="outPlayerKey: PlayerKey" style="text;align=left;verticalAlign=top;spacingLeft=4;spacingRight=4;overflow=hidden;rotatable=0;points=[[0,0.5],[1,0.5]];portConstraint=eastwest;fillColor=default;" parent="k1K5q3cSBx2pi7pBm-CR-15" vertex="1">
          <mxGeometry y="52" width="160" height="26" as="geometry" />
        </mxCell>
        <mxCell id="k1K5q3cSBx2pi7pBm-CR-58" style="edgeStyle=orthogonalEdgeStyle;rounded=0;orthogonalLoop=1;jettySize=auto;html=1;exitX=0.5;exitY=0;exitDx=0;exitDy=0;entryX=0.5;entryY=1;entryDx=0;entryDy=0;endArrow=block;endFill=0;" parent="mO-IK6Tji97R9yf996be-1" source="k1K5q3cSBx2pi7pBm-CR-18" target="k1K5q3cSBx2pi7pBm-CR-0" edge="1">
          <mxGeometry relative="1" as="geometry">
            <Array as="points">
              <mxPoint x="110" y="350" />
              <mxPoint x="435" y="350" />
            </Array>
          </mxGeometry>
        </mxCell>
        <mxCell id="k1K5q3cSBx2pi7pBm-CR-18" value="Card" style="swimlane;fontStyle=0;align=center;verticalAlign=top;childLayout=stackLayout;horizontal=1;startSize=26;horizontalStack=0;resizeParent=1;resizeLast=0;collapsible=1;marginBottom=0;rounded=0;shadow=0;strokeWidth=1;fillColor=#d5e8d4;strokeColor=#82b366;" parent="mO-IK6Tji97R9yf996be-1" vertex="1">
          <mxGeometry x="30" y="389" width="160" height="78" as="geometry">
            <mxRectangle x="550" y="140" width="160" height="26" as="alternateBounds" />
          </mxGeometry>
        </mxCell>
        <mxCell id="k1K5q3cSBx2pi7pBm-CR-19" value="playerKey: PlayerKey" style="text;align=left;verticalAlign=top;spacingLeft=4;spacingRight=4;overflow=hidden;rotatable=0;points=[[0,0.5],[1,0.5]];portConstraint=eastwest;fillColor=default;" parent="k1K5q3cSBx2pi7pBm-CR-18" vertex="1">
          <mxGeometry y="26" width="160" height="26" as="geometry" />
        </mxCell>
        <mxCell id="k1K5q3cSBx2pi7pBm-CR-20" value="color: CardColor" style="text;align=left;verticalAlign=top;spacingLeft=4;spacingRight=4;overflow=hidden;rotatable=0;points=[[0,0.5],[1,0.5]];portConstraint=eastwest;fillColor=default;" parent="k1K5q3cSBx2pi7pBm-CR-18" vertex="1">
          <mxGeometry y="52" width="160" height="26" as="geometry" />
        </mxCell>
        <mxCell id="k1K5q3cSBx2pi7pBm-CR-57" style="edgeStyle=orthogonalEdgeStyle;rounded=0;orthogonalLoop=1;jettySize=auto;html=1;exitX=0.5;exitY=0;exitDx=0;exitDy=0;entryX=0.5;entryY=1;entryDx=0;entryDy=0;endArrow=block;endFill=0;" parent="mO-IK6Tji97R9yf996be-1" source="k1K5q3cSBx2pi7pBm-CR-21" target="k1K5q3cSBx2pi7pBm-CR-0" edge="1">
          <mxGeometry relative="1" as="geometry">
            <Array as="points">
              <mxPoint x="330" y="350" />
              <mxPoint x="435" y="350" />
            </Array>
          </mxGeometry>
        </mxCell>
        <mxCell id="k1K5q3cSBx2pi7pBm-CR-70" style="edgeStyle=orthogonalEdgeStyle;rounded=0;orthogonalLoop=1;jettySize=auto;html=1;exitX=1;exitY=0.5;exitDx=0;exitDy=0;entryX=0.5;entryY=0;entryDx=0;entryDy=0;endArrow=open;endFill=0;startArrow=diamond;startFill=0;" parent="mO-IK6Tji97R9yf996be-1" source="k1K5q3cSBx2pi7pBm-CR-21" target="k1K5q3cSBx2pi7pBm-CR-38" edge="1">
          <mxGeometry relative="1" as="geometry" />
        </mxCell>
        <mxCell id="k1K5q3cSBx2pi7pBm-CR-21" value="Goal" style="swimlane;fontStyle=0;align=center;verticalAlign=top;childLayout=stackLayout;horizontal=1;startSize=26;horizontalStack=0;resizeParent=1;resizeLast=0;collapsible=1;marginBottom=0;rounded=0;shadow=0;strokeWidth=1;fillColor=#d5e8d4;strokeColor=#82b366;" parent="mO-IK6Tji97R9yf996be-1" vertex="1">
          <mxGeometry x="250" y="389" width="160" height="78" as="geometry">
            <mxRectangle x="550" y="140" width="160" height="26" as="alternateBounds" />
          </mxGeometry>
        </mxCell>
        <mxCell id="k1K5q3cSBx2pi7pBm-CR-22" value="playerKey: PlayerKey" style="text;align=left;verticalAlign=top;spacingLeft=4;spacingRight=4;overflow=hidden;rotatable=0;points=[[0,0.5],[1,0.5]];portConstraint=eastwest;fillColor=default;" parent="k1K5q3cSBx2pi7pBm-CR-21" vertex="1">
          <mxGeometry y="26" width="160" height="26" as="geometry" />
        </mxCell>
        <mxCell id="k1K5q3cSBx2pi7pBm-CR-23" value="assistPlayer: PlayerKey" style="text;align=left;verticalAlign=top;spacingLeft=4;spacingRight=4;overflow=hidden;rotatable=0;points=[[0,0.5],[1,0.5]];portConstraint=eastwest;fillColor=default;" parent="k1K5q3cSBx2pi7pBm-CR-21" vertex="1">
          <mxGeometry y="52" width="160" height="26" as="geometry" />
        </mxCell>
        <mxCell id="k1K5q3cSBx2pi7pBm-CR-38" value="PlayerKey" style="swimlane;fontStyle=0;align=center;verticalAlign=top;childLayout=stackLayout;horizontal=1;startSize=26;horizontalStack=0;resizeParent=1;resizeLast=0;collapsible=1;marginBottom=0;rounded=0;shadow=0;strokeWidth=1;fillColor=#d5e8d4;strokeColor=#82b366;" parent="mO-IK6Tji97R9yf996be-1" vertex="1">
          <mxGeometry x="350" y="567" width="160" height="30" as="geometry">
            <mxRectangle x="550" y="140" width="160" height="26" as="alternateBounds" />
          </mxGeometry>
        </mxCell>
        <mxCell id="k1K5q3cSBx2pi7pBm-CR-41" value="TeamKey" style="swimlane;fontStyle=0;align=center;verticalAlign=top;childLayout=stackLayout;horizontal=1;startSize=26;horizontalStack=0;resizeParent=1;resizeLast=0;collapsible=1;marginBottom=0;rounded=0;shadow=0;strokeWidth=1;fillColor=#d5e8d4;strokeColor=#82b366;" parent="mO-IK6Tji97R9yf996be-1" vertex="1">
          <mxGeometry x="40" y="260" width="160" height="30" as="geometry">
            <mxRectangle x="550" y="140" width="160" height="26" as="alternateBounds" />
          </mxGeometry>
        </mxCell>
        <mxCell id="k1K5q3cSBx2pi7pBm-CR-46" value="&amp;lt;&amp;lt;enumeration&amp;gt;&amp;gt;&lt;br&gt;&lt;b&gt;EventType&lt;/b&gt;" style="swimlane;fontStyle=0;align=center;verticalAlign=top;childLayout=stackLayout;horizontal=1;startSize=40;horizontalStack=0;resizeParent=1;resizeParentMax=0;resizeLast=0;collapsible=0;marginBottom=0;html=1;whiteSpace=wrap;fillColor=#d5e8d4;strokeColor=#82b366;" parent="mO-IK6Tji97R9yf996be-1" vertex="1">
          <mxGeometry x="620" y="170" width="140" height="160" as="geometry" />
        </mxCell>
        <mxCell id="k1K5q3cSBx2pi7pBm-CR-47" value="GOAL" style="text;html=1;strokeColor=none;fillColor=default;align=left;verticalAlign=middle;spacingLeft=4;spacingRight=4;overflow=hidden;rotatable=0;points=[[0,0.5],[1,0.5]];portConstraint=eastwest;whiteSpace=wrap;" parent="k1K5q3cSBx2pi7pBm-CR-46" vertex="1">
          <mxGeometry y="40" width="140" height="30" as="geometry" />
        </mxCell>
        <mxCell id="k1K5q3cSBx2pi7pBm-CR-48" value="CARD" style="text;html=1;strokeColor=none;fillColor=default;align=left;verticalAlign=middle;spacingLeft=4;spacingRight=4;overflow=hidden;rotatable=0;points=[[0,0.5],[1,0.5]];portConstraint=eastwest;whiteSpace=wrap;" parent="k1K5q3cSBx2pi7pBm-CR-46" vertex="1">
          <mxGeometry y="70" width="140" height="30" as="geometry" />
        </mxCell>
        <mxCell id="k1K5q3cSBx2pi7pBm-CR-49" value="SUBSTITUTION" style="text;html=1;strokeColor=none;fillColor=default;align=left;verticalAlign=middle;spacingLeft=4;spacingRight=4;overflow=hidden;rotatable=0;points=[[0,0.5],[1,0.5]];portConstraint=eastwest;whiteSpace=wrap;" parent="k1K5q3cSBx2pi7pBm-CR-46" vertex="1">
          <mxGeometry y="100" width="140" height="30" as="geometry" />
        </mxCell>
        <mxCell id="k1K5q3cSBx2pi7pBm-CR-50" value="PENALTY" style="text;html=1;strokeColor=none;fillColor=default;align=left;verticalAlign=middle;spacingLeft=4;spacingRight=4;overflow=hidden;rotatable=0;points=[[0,0.5],[1,0.5]];portConstraint=eastwest;whiteSpace=wrap;" parent="k1K5q3cSBx2pi7pBm-CR-46" vertex="1">
          <mxGeometry y="130" width="140" height="30" as="geometry" />
        </mxCell>
        <mxCell id="k1K5q3cSBx2pi7pBm-CR-51" style="edgeStyle=orthogonalEdgeStyle;rounded=0;orthogonalLoop=1;jettySize=auto;html=1;exitX=1;exitY=0.5;exitDx=0;exitDy=0;entryX=0.5;entryY=0;entryDx=0;entryDy=0;endArrow=open;endFill=0;startArrow=diamond;startFill=0;" parent="mO-IK6Tji97R9yf996be-1" source="k1K5q3cSBx2pi7pBm-CR-1" target="k1K5q3cSBx2pi7pBm-CR-46" edge="1">
          <mxGeometry relative="1" as="geometry" />
        </mxCell>
        <mxCell id="k1K5q3cSBx2pi7pBm-CR-52" value="&amp;lt;&amp;lt;enumeration&amp;gt;&amp;gt;&lt;br&gt;&lt;b&gt;CardColor&lt;/b&gt;" style="swimlane;fontStyle=0;align=center;verticalAlign=top;childLayout=stackLayout;horizontal=1;startSize=40;horizontalStack=0;resizeParent=1;resizeParentMax=0;resizeLast=0;collapsible=0;marginBottom=0;html=1;whiteSpace=wrap;fillColor=#d5e8d4;strokeColor=#82b366;" parent="mO-IK6Tji97R9yf996be-1" vertex="1">
          <mxGeometry x="-130" y="480" width="140" height="100" as="geometry" />
        </mxCell>
        <mxCell id="k1K5q3cSBx2pi7pBm-CR-53" value="YELLOW" style="text;html=1;strokeColor=none;fillColor=default;align=left;verticalAlign=middle;spacingLeft=4;spacingRight=4;overflow=hidden;rotatable=0;points=[[0,0.5],[1,0.5]];portConstraint=eastwest;whiteSpace=wrap;" parent="k1K5q3cSBx2pi7pBm-CR-52" vertex="1">
          <mxGeometry y="40" width="140" height="30" as="geometry" />
        </mxCell>
        <mxCell id="k1K5q3cSBx2pi7pBm-CR-54" value="RED" style="text;html=1;strokeColor=none;fillColor=default;align=left;verticalAlign=middle;spacingLeft=4;spacingRight=4;overflow=hidden;rotatable=0;points=[[0,0.5],[1,0.5]];portConstraint=eastwest;whiteSpace=wrap;" parent="k1K5q3cSBx2pi7pBm-CR-52" vertex="1">
          <mxGeometry y="70" width="140" height="30" as="geometry" />
        </mxCell>
        <mxCell id="k1K5q3cSBx2pi7pBm-CR-62" style="edgeStyle=orthogonalEdgeStyle;rounded=0;orthogonalLoop=1;jettySize=auto;html=1;exitX=0;exitY=0.5;exitDx=0;exitDy=0;entryX=0.5;entryY=0;entryDx=0;entryDy=0;" parent="mO-IK6Tji97R9yf996be-1" source="k1K5q3cSBx2pi7pBm-CR-20" target="k1K5q3cSBx2pi7pBm-CR-52" edge="1">
          <mxGeometry relative="1" as="geometry" />
        </mxCell>
        <mxCell id="k1K5q3cSBx2pi7pBm-CR-66" style="edgeStyle=orthogonalEdgeStyle;rounded=0;orthogonalLoop=1;jettySize=auto;html=1;exitX=0;exitY=0.5;exitDx=0;exitDy=0;entryX=0.5;entryY=0;entryDx=0;entryDy=0;endArrow=open;endFill=0;startArrow=diamond;startFill=0;" parent="mO-IK6Tji97R9yf996be-1" source="k1K5q3cSBx2pi7pBm-CR-17" target="k1K5q3cSBx2pi7pBm-CR-38" edge="1">
          <mxGeometry relative="1" as="geometry">
            <Array as="points">
              <mxPoint x="510" y="454" />
              <mxPoint x="510" y="530" />
              <mxPoint x="430" y="530" />
            </Array>
          </mxGeometry>
        </mxCell>
        <mxCell id="k1K5q3cSBx2pi7pBm-CR-68" style="edgeStyle=orthogonalEdgeStyle;rounded=0;orthogonalLoop=1;jettySize=auto;html=1;exitX=0;exitY=0.5;exitDx=0;exitDy=0;entryX=0.5;entryY=0;entryDx=0;entryDy=0;endArrow=open;endFill=0;startArrow=diamond;startFill=0;" parent="mO-IK6Tji97R9yf996be-1" source="k1K5q3cSBx2pi7pBm-CR-9" target="k1K5q3cSBx2pi7pBm-CR-38" edge="1">
          <mxGeometry relative="1" as="geometry">
            <mxPoint x="480" y="600" as="targetPoint" />
            <Array as="points">
              <mxPoint x="710" y="454" />
              <mxPoint x="710" y="540" />
              <mxPoint x="430" y="540" />
            </Array>
          </mxGeometry>
        </mxCell>
        <mxCell id="k1K5q3cSBx2pi7pBm-CR-69" style="edgeStyle=orthogonalEdgeStyle;rounded=0;orthogonalLoop=1;jettySize=auto;html=1;exitX=1;exitY=0.5;exitDx=0;exitDy=0;entryX=0.5;entryY=0;entryDx=0;entryDy=0;endArrow=open;endFill=0;startArrow=diamond;startFill=0;" parent="mO-IK6Tji97R9yf996be-1" source="k1K5q3cSBx2pi7pBm-CR-19" target="k1K5q3cSBx2pi7pBm-CR-38" edge="1">
          <mxGeometry relative="1" as="geometry">
            <Array as="points">
              <mxPoint x="210" y="428" />
              <mxPoint x="210" y="510" />
              <mxPoint x="430" y="510" />
            </Array>
          </mxGeometry>
        </mxCell>
        <mxCell id="k1K5q3cSBx2pi7pBm-CR-71" style="edgeStyle=orthogonalEdgeStyle;rounded=0;orthogonalLoop=1;jettySize=auto;html=1;exitX=0;exitY=0.5;exitDx=0;exitDy=0;entryX=0.5;entryY=0;entryDx=0;entryDy=0;endArrow=open;endFill=0;startArrow=diamond;startFill=0;" parent="mO-IK6Tji97R9yf996be-1" source="k1K5q3cSBx2pi7pBm-CR-4" target="k1K5q3cSBx2pi7pBm-CR-41" edge="1">
          <mxGeometry relative="1" as="geometry" />
        </mxCell>
      </root>
    </mxGraphModel>
  </diagram>
  <diagram name="Team" id="JQO_MsStoV96rGT8-VxP">
    <mxGraphModel dx="1434" dy="836" grid="1" gridSize="10" guides="1" tooltips="1" connect="1" arrows="1" fold="1" page="1" pageScale="1" pageWidth="827" pageHeight="1169" math="0" shadow="0">
      <root>
        <mxCell id="wK4j9I6bNDDtZMB-dfcX-0" />
        <mxCell id="wK4j9I6bNDDtZMB-dfcX-1" parent="wK4j9I6bNDDtZMB-dfcX-0" />
        <mxCell id="mNfe2RMvwNvc-vD_Ussm-0" value="Team" style="swimlane;fontStyle=2;align=center;verticalAlign=top;childLayout=stackLayout;horizontal=1;startSize=26;horizontalStack=0;resizeParent=1;resizeLast=0;collapsible=1;marginBottom=0;rounded=0;shadow=0;strokeWidth=1;fillColor=#d5e8d4;strokeColor=#82b366;" parent="wK4j9I6bNDDtZMB-dfcX-1" vertex="1">
          <mxGeometry x="110" y="120" width="270" height="182" as="geometry">
            <mxRectangle x="220" y="120" width="160" height="26" as="alternateBounds" />
          </mxGeometry>
        </mxCell>
        <mxCell id="mNfe2RMvwNvc-vD_Ussm-1" value="key: TeamKey" style="text;align=left;verticalAlign=top;spacingLeft=4;spacingRight=4;overflow=hidden;rotatable=0;points=[[0,0.5],[1,0.5]];portConstraint=eastwest;fillColor=default;" parent="mNfe2RMvwNvc-vD_Ussm-0" vertex="1">
          <mxGeometry y="26" width="270" height="26" as="geometry" />
        </mxCell>
        <mxCell id="mNfe2RMvwNvc-vD_Ussm-2" value="name: String" style="text;align=left;verticalAlign=top;spacingLeft=4;spacingRight=4;overflow=hidden;rotatable=0;points=[[0,0.5],[1,0.5]];portConstraint=eastwest;rounded=0;shadow=0;html=0;fillColor=default;" parent="mNfe2RMvwNvc-vD_Ussm-0" vertex="1">
          <mxGeometry y="52" width="270" height="26" as="geometry" />
        </mxCell>
        <mxCell id="mNfe2RMvwNvc-vD_Ussm-3" value="stadium: String" style="text;align=left;verticalAlign=top;spacingLeft=4;spacingRight=4;overflow=hidden;rotatable=0;points=[[0,0.5],[1,0.5]];portConstraint=eastwest;rounded=0;shadow=0;html=0;fillColor=default;" parent="mNfe2RMvwNvc-vD_Ussm-0" vertex="1">
          <mxGeometry y="78" width="270" height="26" as="geometry" />
        </mxCell>
        <mxCell id="mNfe2RMvwNvc-vD_Ussm-15" value="stadiumCapacity: int" style="text;align=left;verticalAlign=top;spacingLeft=4;spacingRight=4;overflow=hidden;rotatable=0;points=[[0,0.5],[1,0.5]];portConstraint=eastwest;rounded=0;shadow=0;html=0;fillColor=default;" parent="mNfe2RMvwNvc-vD_Ussm-0" vertex="1">
          <mxGeometry y="104" width="270" height="26" as="geometry" />
        </mxCell>
        <mxCell id="mNfe2RMvwNvc-vD_Ussm-4" value="coachKey: PlayerKey" style="text;align=left;verticalAlign=top;spacingLeft=4;spacingRight=4;overflow=hidden;rotatable=0;points=[[0,0.5],[1,0.5]];portConstraint=eastwest;rounded=0;shadow=0;html=0;fillColor=default;" parent="mNfe2RMvwNvc-vD_Ussm-0" vertex="1">
          <mxGeometry y="130" width="270" height="26" as="geometry" />
        </mxCell>
        <mxCell id="mNfe2RMvwNvc-vD_Ussm-16" value="playersKeys: Collection&lt;PlayerKey&gt;" style="text;align=left;verticalAlign=top;spacingLeft=4;spacingRight=4;overflow=hidden;rotatable=0;points=[[0,0.5],[1,0.5]];portConstraint=eastwest;rounded=0;shadow=0;html=0;fillColor=default;" parent="mNfe2RMvwNvc-vD_Ussm-0" vertex="1">
          <mxGeometry y="156" width="270" height="26" as="geometry" />
        </mxCell>
        <mxCell id="mNfe2RMvwNvc-vD_Ussm-5" value="TeamKey" style="swimlane;fontStyle=0;align=center;verticalAlign=top;childLayout=stackLayout;horizontal=1;startSize=26;horizontalStack=0;resizeParent=1;resizeLast=0;collapsible=1;marginBottom=0;rounded=0;shadow=0;strokeWidth=1;fillColor=#d5e8d4;strokeColor=#82b366;" parent="wK4j9I6bNDDtZMB-dfcX-1" vertex="1">
          <mxGeometry x="620" y="313" width="160" height="78" as="geometry">
            <mxRectangle x="550" y="140" width="160" height="26" as="alternateBounds" />
          </mxGeometry>
        </mxCell>
        <mxCell id="mNfe2RMvwNvc-vD_Ussm-6" value="teamName: String" style="text;align=left;verticalAlign=top;spacingLeft=4;spacingRight=4;overflow=hidden;rotatable=0;points=[[0,0.5],[1,0.5]];portConstraint=eastwest;fillColor=default;" parent="mNfe2RMvwNvc-vD_Ussm-5" vertex="1">
          <mxGeometry y="26" width="160" height="26" as="geometry" />
        </mxCell>
        <mxCell id="mNfe2RMvwNvc-vD_Ussm-14" value="teamId: String" style="text;align=left;verticalAlign=top;spacingLeft=4;spacingRight=4;overflow=hidden;rotatable=0;points=[[0,0.5],[1,0.5]];portConstraint=eastwest;fillColor=default;" parent="mNfe2RMvwNvc-vD_Ussm-5" vertex="1">
          <mxGeometry y="52" width="160" height="26" as="geometry" />
        </mxCell>
        <mxCell id="mNfe2RMvwNvc-vD_Ussm-10" style="edgeStyle=orthogonalEdgeStyle;rounded=0;orthogonalLoop=1;jettySize=auto;html=1;exitX=1;exitY=0.5;exitDx=0;exitDy=0;entryX=0.5;entryY=0;entryDx=0;entryDy=0;shadow=0;flowAnimation=0;endArrow=open;endFill=0;startArrow=diamond;startFill=0;" parent="wK4j9I6bNDDtZMB-dfcX-1" source="mNfe2RMvwNvc-vD_Ussm-1" target="mNfe2RMvwNvc-vD_Ussm-5" edge="1">
          <mxGeometry relative="1" as="geometry" />
        </mxCell>
        <mxCell id="mNfe2RMvwNvc-vD_Ussm-11" value="PlayerKey" style="swimlane;fontStyle=0;align=center;verticalAlign=top;childLayout=stackLayout;horizontal=1;startSize=26;horizontalStack=0;resizeParent=1;resizeLast=0;collapsible=1;marginBottom=0;rounded=0;shadow=0;strokeWidth=1;fillColor=#d5e8d4;strokeColor=#82b366;" parent="wK4j9I6bNDDtZMB-dfcX-1" vertex="1">
          <mxGeometry x="440" y="313" width="160" height="28" as="geometry">
            <mxRectangle x="550" y="140" width="160" height="26" as="alternateBounds" />
          </mxGeometry>
        </mxCell>
        <mxCell id="mNfe2RMvwNvc-vD_Ussm-12" style="edgeStyle=orthogonalEdgeStyle;rounded=0;orthogonalLoop=1;jettySize=auto;html=1;exitX=1;exitY=0.5;exitDx=0;exitDy=0;entryX=0.5;entryY=0;entryDx=0;entryDy=0;startArrow=diamond;startFill=0;endArrow=open;endFill=0;" parent="wK4j9I6bNDDtZMB-dfcX-1" source="mNfe2RMvwNvc-vD_Ussm-16" target="mNfe2RMvwNvc-vD_Ussm-11" edge="1">
          <mxGeometry relative="1" as="geometry" />
        </mxCell>
        <mxCell id="mNfe2RMvwNvc-vD_Ussm-13" value="0...*" style="edgeLabel;html=1;align=center;verticalAlign=middle;resizable=0;points=[];" parent="mNfe2RMvwNvc-vD_Ussm-12" vertex="1" connectable="0">
          <mxGeometry x="0.5217" y="-1" relative="1" as="geometry">
            <mxPoint x="26" y="9" as="offset" />
          </mxGeometry>
        </mxCell>
        <mxCell id="mNfe2RMvwNvc-vD_Ussm-17" style="edgeStyle=orthogonalEdgeStyle;rounded=0;orthogonalLoop=1;jettySize=auto;html=1;exitX=1;exitY=0.5;exitDx=0;exitDy=0;entryX=0.75;entryY=0;entryDx=0;entryDy=0;startArrow=diamond;startFill=0;" parent="wK4j9I6bNDDtZMB-dfcX-1" source="mNfe2RMvwNvc-vD_Ussm-4" target="mNfe2RMvwNvc-vD_Ussm-11" edge="1">
          <mxGeometry relative="1" as="geometry" />
        </mxCell>
      </root>
    </mxGraphModel>
  </diagram>
  <diagram name="Player" id="xmovo23YoOVpLzPo4mms">
    <mxGraphModel dx="1434" dy="836" grid="1" gridSize="10" guides="1" tooltips="1" connect="1" arrows="1" fold="1" page="1" pageScale="1" pageWidth="827" pageHeight="1169" math="0" shadow="0">
      <root>
        <mxCell id="rhsQE1OdQO3j0splR9Ip-0" />
        <mxCell id="rhsQE1OdQO3j0splR9Ip-1" parent="rhsQE1OdQO3j0splR9Ip-0" />
        <mxCell id="XDWvs81VIJMW7p0sAxtR-0" value="Player" style="swimlane;fontStyle=2;align=center;verticalAlign=top;childLayout=stackLayout;horizontal=1;startSize=26;horizontalStack=0;resizeParent=1;resizeLast=0;collapsible=1;marginBottom=0;rounded=0;shadow=0;strokeWidth=1;fillColor=#d5e8d4;strokeColor=#82b366;" parent="rhsQE1OdQO3j0splR9Ip-1" vertex="1">
          <mxGeometry x="110" y="120" width="270" height="130" as="geometry">
            <mxRectangle x="220" y="120" width="160" height="26" as="alternateBounds" />
          </mxGeometry>
        </mxCell>
        <mxCell id="XDWvs81VIJMW7p0sAxtR-1" value="key: PlayerKey" style="text;align=left;verticalAlign=top;spacingLeft=4;spacingRight=4;overflow=hidden;rotatable=0;points=[[0,0.5],[1,0.5]];portConstraint=eastwest;fillColor=default;" parent="XDWvs81VIJMW7p0sAxtR-0" vertex="1">
          <mxGeometry y="26" width="270" height="26" as="geometry" />
        </mxCell>
        <mxCell id="XDWvs81VIJMW7p0sAxtR-2" value="name: String" style="text;align=left;verticalAlign=top;spacingLeft=4;spacingRight=4;overflow=hidden;rotatable=0;points=[[0,0.5],[1,0.5]];portConstraint=eastwest;rounded=0;shadow=0;html=0;fillColor=default;" parent="XDWvs81VIJMW7p0sAxtR-0" vertex="1">
          <mxGeometry y="52" width="270" height="26" as="geometry" />
        </mxCell>
        <mxCell id="XDWvs81VIJMW7p0sAxtR-3" value="birthDate: Date" style="text;align=left;verticalAlign=top;spacingLeft=4;spacingRight=4;overflow=hidden;rotatable=0;points=[[0,0.5],[1,0.5]];portConstraint=eastwest;rounded=0;shadow=0;html=0;fillColor=default;" parent="XDWvs81VIJMW7p0sAxtR-0" vertex="1">
          <mxGeometry y="78" width="270" height="26" as="geometry" />
        </mxCell>
        <mxCell id="XDWvs81VIJMW7p0sAxtR-4" value="role: String" style="text;align=left;verticalAlign=top;spacingLeft=4;spacingRight=4;overflow=hidden;rotatable=0;points=[[0,0.5],[1,0.5]];portConstraint=eastwest;rounded=0;shadow=0;html=0;fillColor=default;" parent="XDWvs81VIJMW7p0sAxtR-0" vertex="1">
          <mxGeometry y="104" width="270" height="26" as="geometry" />
        </mxCell>
        <mxCell id="XDWvs81VIJMW7p0sAxtR-7" value="PlayerKey" style="swimlane;fontStyle=0;align=center;verticalAlign=top;childLayout=stackLayout;horizontal=1;startSize=26;horizontalStack=0;resizeParent=1;resizeLast=0;collapsible=1;marginBottom=0;rounded=0;shadow=0;strokeWidth=1;fillColor=#d5e8d4;strokeColor=#82b366;" parent="rhsQE1OdQO3j0splR9Ip-1" vertex="1">
          <mxGeometry x="430" y="240" width="160" height="78" as="geometry">
            <mxRectangle x="550" y="140" width="160" height="26" as="alternateBounds" />
          </mxGeometry>
        </mxCell>
        <mxCell id="XDWvs81VIJMW7p0sAxtR-8" value="playerName: String" style="text;align=left;verticalAlign=top;spacingLeft=4;spacingRight=4;overflow=hidden;rotatable=0;points=[[0,0.5],[1,0.5]];portConstraint=eastwest;fillColor=default;" parent="XDWvs81VIJMW7p0sAxtR-7" vertex="1">
          <mxGeometry y="26" width="160" height="26" as="geometry" />
        </mxCell>
        <mxCell id="XDWvs81VIJMW7p0sAxtR-9" value="playerId: String" style="text;align=left;verticalAlign=top;spacingLeft=4;spacingRight=4;overflow=hidden;rotatable=0;points=[[0,0.5],[1,0.5]];portConstraint=eastwest;fillColor=default;" parent="XDWvs81VIJMW7p0sAxtR-7" vertex="1">
          <mxGeometry y="52" width="160" height="26" as="geometry" />
        </mxCell>
        <mxCell id="XDWvs81VIJMW7p0sAxtR-10" style="edgeStyle=orthogonalEdgeStyle;rounded=0;orthogonalLoop=1;jettySize=auto;html=1;exitX=1;exitY=0.5;exitDx=0;exitDy=0;entryX=0.5;entryY=0;entryDx=0;entryDy=0;shadow=0;flowAnimation=0;endArrow=open;endFill=0;startArrow=diamond;startFill=0;" parent="rhsQE1OdQO3j0splR9Ip-1" source="XDWvs81VIJMW7p0sAxtR-1" target="XDWvs81VIJMW7p0sAxtR-7" edge="1">
          <mxGeometry relative="1" as="geometry" />
        </mxCell>
      </root>
    </mxGraphModel>
  </diagram>
</mxfile>
